<svg width="70" height="70" viewBox="0 0 70 70" fill="none" xmlns="http://www.w3.org/2000/svg">
<path d="M60 0H10C4.47715 0 0 4.47715 0 10V60C0 65.5229 4.47715 70 10 70H60C65.5229 70 70 65.5229 70 60V10C70 4.47715 65.5229 0 60 0Z" fill="#C4161F"/>
<path d="M9.63 25.39C8.11 25.89 6.93 26.72 6.09 27.88C5.27 29.02 4.86 30.44 4.86 32.14C4.86 32.9 4.93 33.42 5.07 33.7C5.21 33.98 5.28 34.15 5.28 34.21C3.14 34.21 2.07 33.3 2.07 31.48C2.07 30.24 2.54 29 3.48 27.76C4.44 26.5 5.66 25.48 7.14 24.7C8.64 23.9 10.13 23.5 11.61 23.5C12.35 23.5 13.11 23.64 13.89 23.92L13.2 39.73L19.8 23.92H24.12L20.97 46H16.65L18.57 32.53L12.93 46H8.82L9.42 32.47L4.41 46H2.01L9.63 25.39ZM25.8033 46.18C24.3233 46.18 23.1733 45.8 22.3533 45.04C21.5333 44.26 21.1233 43.05 21.1233 41.41C21.1233 40.03 21.3933 38.51 21.9333 36.85C22.4733 35.19 23.3533 33.76 24.5733 32.56C25.7933 31.34 27.3433 30.73 29.2233 30.73C31.4233 30.73 32.5233 31.69 32.5233 33.61C32.5233 34.73 32.2033 35.76 31.5633 36.7C30.9233 37.64 30.0733 38.4 29.0133 38.98C27.9533 39.54 26.8233 39.86 25.6233 39.94C25.5833 40.54 25.5633 40.94 25.5633 41.14C25.5633 42.12 25.7333 42.79 26.0733 43.15C26.4133 43.49 26.9633 43.66 27.7233 43.66C28.8033 43.66 29.7233 43.41 30.4833 42.91C31.2633 42.41 32.1133 41.65 33.0333 40.63H34.0533C31.8333 44.33 29.0833 46.18 25.8033 46.18ZM25.8633 38.5C26.6033 38.46 27.3033 38.2 27.9633 37.72C28.6433 37.24 29.1833 36.63 29.5833 35.89C30.0033 35.15 30.2133 34.37 30.2133 33.55C30.2133 32.73 29.9633 32.32 29.4633 32.32C28.7433 32.32 28.0333 32.95 27.3333 34.21C26.6533 35.47 26.1633 36.9 25.8633 38.5ZM48.657 46.18C47.597 46.18 46.827 45.86 46.347 45.22C45.867 44.58 45.627 43.77 45.627 42.79C45.627 42.37 45.677 41.9 45.777 41.38C45.877 40.84 45.977 40.32 46.077 39.82C46.197 39.32 46.277 39 46.317 38.86C46.477 38.16 46.627 37.47 46.767 36.79C46.907 36.11 46.977 35.56 46.977 35.14C46.977 34.12 46.617 33.61 45.897 33.61C45.377 33.61 44.917 33.87 44.517 34.39C44.117 34.89 43.797 35.55 43.557 36.37L41.517 46H37.197L39.387 35.65C39.447 35.41 39.477 35.16 39.477 34.9C39.477 34.02 39.177 33.58 38.577 33.58C38.017 33.58 37.527 33.84 37.107 34.36C36.707 34.86 36.387 35.53 36.147 36.37L34.107 46H29.787L32.967 31H37.287L36.957 32.56C37.977 31.42 39.197 30.85 40.617 30.85C42.377 30.85 43.407 31.71 43.707 33.43C44.807 31.73 46.197 30.88 47.877 30.88C48.897 30.88 49.707 31.16 50.307 31.72C50.907 32.28 51.207 33.13 51.207 34.27C51.207 34.85 51.137 35.5 50.997 36.22C50.857 36.92 50.657 37.78 50.397 38.8C50.237 39.42 50.087 40.03 49.947 40.63C49.827 41.21 49.767 41.67 49.767 42.01C49.767 42.41 49.857 42.72 50.037 42.94C50.217 43.16 50.527 43.27 50.967 43.27C51.447 43.27 51.777 43.21 51.957 43.09C51.837 44.11 51.467 44.88 50.847 45.4C50.247 45.92 49.517 46.18 48.657 46.18ZM56.7921 52.21C55.3321 52.21 54.1521 51.83 53.2521 51.07C52.3721 50.33 51.9321 49.35 51.9321 48.13C51.9321 47.37 52.1121 46.67 52.4721 46.03C52.8321 45.39 53.3221 44.89 53.9421 44.53C54.5621 44.15 55.2421 43.96 55.9821 43.96C56.7421 43.96 57.3521 44.15 57.8121 44.53C58.2921 44.91 58.5321 45.41 58.5321 46.03C58.5321 46.51 58.4221 46.89 58.2021 47.17C58.0221 46.93 57.7721 46.74 57.4521 46.6C57.1521 46.46 56.8321 46.39 56.4921 46.39C55.8921 46.39 55.4021 46.59 55.0221 46.99C54.6421 47.39 54.4521 47.91 54.4521 48.55C54.4521 49.19 54.6321 49.71 54.9921 50.11C55.3721 50.51 55.8421 50.71 56.4021 50.71C57.1021 50.71 57.7021 50.4 58.2021 49.78C58.7021 49.16 59.0821 48.24 59.3421 47.02L60.8421 40.39H60.7221C60.1821 41.15 59.5221 41.73 58.7421 42.13C57.9821 42.53 57.1421 42.73 56.2221 42.73C55.0621 42.73 54.0421 42.42 53.1621 41.8C52.2821 41.18 51.6021 40.3 51.1221 39.16C50.6621 38 50.4321 36.66 50.4321 35.14C50.4321 32.94 50.9121 30.94 51.8721 29.14C52.8321 27.32 54.1521 25.89 55.8321 24.85C57.5121 23.81 59.3621 23.29 61.3821 23.29C63.0821 23.29 64.4221 23.66 65.4021 24.4C66.4021 25.14 66.9021 26.15 66.9021 27.43C66.9021 28.29 66.6921 28.98 66.2721 29.5C65.8521 30.02 65.3021 30.28 64.6221 30.28C64.2421 30.28 63.8821 30.2 63.5421 30.04C63.2221 29.88 62.9521 29.65 62.7321 29.35C63.0921 29.11 63.3921 28.73 63.6321 28.21C63.8921 27.67 64.0221 27.13 64.0221 26.59C64.0221 25.99 63.8421 25.53 63.4821 25.21C63.1421 24.87 62.6521 24.7 62.0121 24.7C60.8521 24.7 59.7321 25.22 58.6521 26.26C57.5721 27.28 56.7021 28.62 56.0421 30.28C55.3821 31.94 55.0521 33.68 55.0521 35.5C55.0521 37 55.2921 38.15 55.7721 38.95C56.2521 39.73 56.9421 40.12 57.8421 40.12C58.9221 40.12 59.8721 39.55 60.6921 38.41C61.5321 37.27 62.2021 35.61 62.7021 33.43L66.2421 33.46L64.0521 43.54C63.4121 46.52 62.5021 48.71 61.3221 50.11C60.1621 51.51 58.6521 52.21 56.7921 52.21Z" fill="white"/>
</svg>
